<svg width="16" height="16" viewBox="0 0 16 16" fill="none" xmlns="http://www.w3.org/2000/svg">
<g clip-path="url(#clip0_432_284)">
<path d="M7.51467 9.05C7.24601 10.8193 6.68001 12.1427 6.18067 13.31L5.97467 13.796C5.92067 13.9233 5.79734 14.0007 5.66734 14.0007C5.62467 14.0007 5.58067 13.992 5.53867 13.9747C5.36867 13.904 5.28867 13.7087 5.35934 13.5387L5.56734 13.0487C5.90801 12.2533 6.28067 11.3827 6.56067 10.3487C6.14401 10.7793 5.84934 10.9473 5.82934 10.9587C5.66867 11.0487 5.46601 10.992 5.37534 10.8307C5.28601 10.6707 5.34267 10.468 5.50201 10.378C5.51334 10.3713 6.17 9.98133 6.90334 8.82267C6.98734 8.68867 7.15334 8.63333 7.30134 8.68867C7.44934 8.744 7.53801 8.89533 7.51401 9.05133L7.51467 9.05ZM12 6.66133C12 9.74333 11.1393 12.4473 10.418 14.174C9.95401 15.2833 8.87001 16 7.65601 16H1.69867C1.14134 16 0.618006 15.7267 0.300006 15.2687C-0.0193273 14.81 -0.0906607 14.2473 0.103339 13.726C0.276673 13.262 0.502673 12.7353 0.746006 12.168C1.46467 10.496 2.35867 8.416 2.38467 6.65667C2.38601 6.55933 2.43001 6.46733 2.50467 6.40533C2.74001 6.21 3.15467 5.998 3.50934 5.99467C3.86734 6.004 4.18734 6.11 4.44934 6.328C4.97534 6.76467 5.74067 6.76467 6.26667 6.328C6.80401 5.88333 7.58267 5.88267 8.12001 6.328C8.64601 6.76467 9.41134 6.76467 9.93734 6.328C10.196 6.11333 10.5247 5.99467 10.864 5.99467C11.2287 5.99467 11.646 6.20333 11.8793 6.39733C11.952 6.45733 11.996 6.56733 12 6.66133ZM11.3327 6.82467C11.178 6.73 10.9867 6.66133 10.864 6.66133C10.68 6.66133 10.5027 6.72533 10.3633 6.84067C9.59534 7.478 8.46267 7.478 7.69467 6.84067C7.40401 6.59933 6.98334 6.6 6.69334 6.84067C5.92534 7.478 4.79267 7.478 4.02467 6.84067C3.88334 6.72333 3.70267 6.67667 3.51601 6.66133C3.39667 6.662 3.20401 6.736 3.04667 6.83467C2.96934 8.684 2.07867 10.756 1.35934 12.4307C1.12067 12.9867 0.898673 13.5027 0.728673 13.9587C0.612006 14.2727 0.655339 14.6113 0.848006 14.888C1.04401 15.1713 1.35467 15.3333 1.69867 15.3333H7.65667C8.60067 15.3333 9.44334 14.7773 9.80334 13.916C10.4887 12.2773 11.3033 9.72867 11.3327 6.82467ZM16 3V11.6667C16 13.3207 14.654 14.6667 13 14.6667H12.3333C12.1493 14.6667 12 14.5173 12 14.3333C12 14.1493 12.1493 14 12.3333 14H13C14.2867 14 15.3333 12.9533 15.3333 11.6667V4.66667C15.0167 4.66667 14.716 4.55267 14.464 4.336C14.2107 4.11933 13.888 4 13.556 4C13.224 4 12.9007 4.11933 12.648 4.336C12.1433 4.768 11.4127 4.768 10.9093 4.336C10.404 3.902 9.60001 3.902 9.09267 4.336C8.58801 4.768 7.85734 4.768 7.35401 4.336C6.84867 3.902 6.04401 3.902 5.53734 4.336C5.28534 4.552 4.98467 4.66667 4.66801 4.66667H4.33467C4.15067 4.66667 4.00134 4.51733 4.00134 4.33333V3C4.00134 1.346 5.34734 0 7.00134 0H13.0013C14.6553 0 16.0013 1.346 16.0013 3H16ZM15.3333 3C15.3333 1.71333 14.2867 0.666667 13 0.666667H7.00001C5.71334 0.666667 4.66667 1.71333 4.66667 3V4C4.82201 4 4.97201 3.94133 5.10267 3.83C5.85001 3.18933 7.03934 3.18933 7.78667 3.83C8.04734 4.05267 8.40001 4.052 8.65801 3.83C9.40601 3.18933 10.5947 3.19 11.342 3.83C11.6007 4.052 11.9533 4.05267 12.214 3.83C12.9613 3.18933 14.1507 3.18933 14.898 3.83C15.028 3.94133 15.1787 4 15.334 4L15.3333 3Z" fill="black"/>
</g>
<defs>
<clipPath id="clip0_432_284">
<rect width="16" height="16" fill="white"/>
</clipPath>
</defs>
</svg>
