<svg width="16" height="16" viewBox="0 0 16 16" fill="none" xmlns="http://www.w3.org/2000/svg">
<g clip-path="url(#clip0_432_311)">
<path d="M0.000427082 6.33376C0.000427082 6.14976 0.14976 6.00043 0.33376 6.00043H2.01709C2.08643 5.10843 2.44043 4.24509 3.05576 3.52709L1.76443 2.23576C1.63443 2.10576 1.63443 1.89443 1.76443 1.76443C1.89443 1.63443 2.10576 1.63443 2.23576 1.76443L3.52709 3.05576C4.24443 2.44043 5.10843 2.08643 6.00043 2.01709V0.33376C6.00043 0.14976 6.14976 0.000427075 6.33376 0.000427075C6.51776 0.000427075 6.66709 0.14976 6.66709 0.33376V2.02243C7.51576 2.08776 8.35176 2.39043 9.05976 2.96509C9.11309 3.00709 9.20043 2.99576 9.25643 2.93976L10.4318 1.76443C10.5618 1.63443 10.7731 1.63443 10.9031 1.76443C11.0331 1.89443 11.0331 2.10576 10.9031 2.23576L9.72776 3.41109C9.42643 3.71109 8.95976 3.74243 8.63976 3.48243C7.17843 2.29776 5.07243 2.40909 3.74109 3.74109C2.40909 5.07309 2.29843 7.17909 3.48243 8.64043C3.74243 8.95976 3.71176 9.42776 3.41109 9.72776L2.23576 10.9031C2.17043 10.9684 2.08509 11.0004 1.99976 11.0004C1.91443 11.0004 1.82909 10.9678 1.76376 10.9031C1.63376 10.7731 1.63376 10.5618 1.76376 10.4318L2.93909 9.25643C2.99509 9.20043 3.00643 9.11243 2.96443 9.06043C2.39043 8.35243 2.08776 7.51576 2.02243 6.66709H0.33376C0.14976 6.66709 0.000427082 6.51776 0.000427082 6.33376ZM15.9698 0.0310937C15.8398 -0.0989062 15.6284 -0.0989062 15.4984 0.0310937L0.0310937 15.4978C-0.0989062 15.6278 -0.0989062 15.8391 0.0310937 15.9691C0.0964271 16.0344 0.18176 16.0664 0.267094 16.0664C0.352427 16.0664 0.43776 16.0338 0.503094 15.9691L15.9698 0.502427C16.0998 0.372427 16.0998 0.161094 15.9698 0.0310937ZM15.5964 14.1031C14.3544 13.4751 13.5824 12.2224 13.5824 10.8338C13.5824 9.44509 14.3538 8.19243 15.5958 7.56443C15.8444 7.43909 15.9984 7.18443 15.9998 6.90109C16.0004 6.61909 15.8484 6.36443 15.6018 6.23776C14.5744 5.70843 13.4198 5.54176 12.2604 5.76043C12.0798 5.79443 11.9604 5.96843 11.9944 6.14909C12.0284 6.33043 12.2038 6.45043 12.3831 6.41509C13.3944 6.22576 14.4011 6.36909 15.2964 6.83043C15.3278 6.84709 15.3331 6.88043 15.3331 6.89909C15.3331 6.91843 15.3278 6.95309 15.2944 6.96976C13.8271 7.71243 12.9158 9.19243 12.9158 10.8338C12.9158 12.4751 13.8278 13.9564 15.2951 14.6984C15.3284 14.7151 15.3338 14.7498 15.3338 14.7684C15.3338 14.7871 15.3291 14.8204 15.2978 14.8371C14.6584 15.1664 13.9691 15.3338 13.2491 15.3338C10.7664 15.3338 8.71109 13.3871 8.66709 10.9944C8.66309 10.7711 8.67576 10.5444 8.70376 10.3198C8.72709 10.1378 8.59776 9.97109 8.41509 9.94709C8.23576 9.92443 8.06576 10.0531 8.04243 10.2364C8.01043 10.4924 7.99576 10.7504 8.00043 11.0058C8.05109 13.7598 10.4051 15.9998 13.2491 15.9998C14.0771 15.9998 14.8691 15.8078 15.6038 15.4291C15.8498 15.3024 16.0018 15.0478 16.0004 14.7658C15.9991 14.4818 15.8444 14.2284 15.5964 14.1031Z" fill="black"/>
</g>
<defs>
<clipPath id="clip0_432_311">
<rect width="16" height="16" fill="white"/>
</clipPath>
</defs>
</svg>
