<svg width="46" height="39" viewBox="0 0 46 39" fill="none" xmlns="http://www.w3.org/2000/svg">
<rect x="0.5" y="0.5" width="44.5003" height="37.5" rx="18.75" fill="#84BCDB"/>
<rect x="0.5" y="0.5" width="44.5003" height="37.5" rx="18.75" stroke="black"/>
<path d="M22.3867 30.5H20.3867C20.3867 30.5 20.6405 27.8955 23.8867 24C26.3867 21 30.3867 20 30.3867 20H10V18L30.3867 18.5C30.3867 18.5 25.9892 16.0195 23.8867 14C21.8853 12.0775 20.3867 8 20.3867 8H22.3867C22.3867 8 22.8867 10.5 24.8867 12.5C26.8867 14.5 35.5003 19.2878 35.5003 19.2878C35.5003 19.2878 27.1265 23.2602 25.3867 25C23.404 26.9827 22.3867 30.5 22.3867 30.5Z" fill="black"/>
</svg>
