<svg width="16" height="16" viewBox="0 0 16 16" fill="none" xmlns="http://www.w3.org/2000/svg">
<g clip-path="url(#clip0_432_258)">
<path d="M10.45 11.3327V10.666H12.3953V11.3327H10.45ZM13.6407 11.3567C14.1953 11.442 14.6913 11.7613 15.002 12.2327L15.5587 11.8653C15.144 11.2373 14.482 10.8113 13.742 10.6973L13.6407 11.3567ZM9.07733 7.61067C9.35067 7.42933 9.66933 7.33267 9.99867 7.33267H10.0813L9.468 6.73267C9.19933 6.79533 8.94133 6.9 8.708 7.05467C8.38267 7.27133 8.114 7.568 7.93267 7.91267L8.52267 8.22333C8.65267 7.97667 8.844 7.76533 9.07733 7.61067ZM11.332 3.33267C11.332 2.59733 11.93 1.99933 12.6653 1.99933C13.4007 1.99933 13.9987 2.59733 13.9987 3.33267C13.9987 4.068 13.4007 4.666 12.6653 4.666C11.93 4.666 11.332 4.068 11.332 3.33267ZM11.9987 3.33267C11.9987 3.7 12.298 3.99933 12.6653 3.99933C13.0327 3.99933 13.332 3.7 13.332 3.33267C13.332 2.96533 13.0327 2.666 12.6653 2.666C12.298 2.666 11.9987 2.96533 11.9987 3.33267ZM10.3107 5.69267C9.008 4.39 9.008 2.276 10.308 0.976C10.938 0.346667 11.7747 0 12.6653 0C13.556 0 14.3927 0.346667 15.022 0.976C15.652 1.60533 15.9987 2.44267 15.9987 3.33333C15.9987 4.224 15.652 5.06067 15.022 5.69067L12.6653 7.996L10.3107 5.69333V5.69267ZM10.7793 5.21867L12.6653 7.06267L14.5533 5.216C15.0547 4.71533 15.332 4.04533 15.332 3.33267C15.332 2.62 15.0547 1.95067 14.5507 1.44667C14.0473 0.943333 13.3773 0.666 12.6653 0.666C11.9533 0.666 11.2833 0.943333 10.7793 1.44667C9.73933 2.48667 9.73933 4.17933 10.7793 5.21867ZM15.332 13.3333C15.332 13.8833 15.1133 14.396 14.716 14.7773L15.1767 15.2587C15.7073 14.7507 15.9987 14.0667 15.9987 13.3333L15.9973 13.2607L15.332 13.334V13.3333ZM8.62933 16H10.5753V15.3333H8.62933V16ZM13.332 15.3333H11.8727V16H13.332C13.518 16 13.7033 15.9807 13.8833 15.9427L13.7453 15.29C13.6107 15.3187 13.4713 15.3333 13.332 15.3333ZM9.31467 10.52C8.81067 10.2933 8.45267 9.83333 8.35667 9.29067L7.70067 9.40667C7.83467 10.1667 8.33533 10.81 9.04133 11.128L9.31467 10.52ZM5.234 16H7.332V15.3333H5.916L5.234 16ZM4.66533 11.3333C4.66533 12.0687 4.06733 12.6667 3.332 12.6667C2.59667 12.6667 1.99867 12.0687 1.99867 11.3333C1.99867 10.598 2.59667 10 3.332 10C4.06733 10 4.66533 10.598 4.66533 11.3333ZM3.99867 11.3333C3.99867 10.966 3.69933 10.6667 3.332 10.6667C2.96467 10.6667 2.66533 10.966 2.66533 11.3333C2.66533 11.7007 2.96467 12 3.332 12C3.69933 12 3.99867 11.7007 3.99867 11.3333ZM5.68867 13.6907L3.332 15.996L0.977334 13.6933C-0.325333 12.3907 -0.325333 10.2767 0.974667 8.97667C1.60467 8.34733 2.44133 8.00067 3.332 8.00067C4.22267 8.00067 5.05933 8.34733 5.68867 8.97667C6.31867 9.606 6.66533 10.4433 6.66533 11.334C6.66533 12.2247 6.31867 13.0607 5.68867 13.6907ZM5.22 13.2167C5.72133 12.716 5.99867 12.046 5.99867 11.3333C5.99867 10.6207 5.72133 9.95133 5.21733 9.44733C4.714 8.944 4.044 8.66667 3.332 8.66667C2.62 8.66667 1.95 8.944 1.446 9.44733C0.406 10.4873 0.406 12.1793 1.446 13.2187L3.332 15.0627L5.22 13.2167Z" fill="black"/>
</g>
<defs>
<clipPath id="clip0_432_258">
<rect width="16" height="16" fill="white"/>
</clipPath>
</defs>
</svg>
