<svg width="46" height="39" viewBox="0 0 46 39" fill="none" xmlns="http://www.w3.org/2000/svg">
<rect x="-0.5" y="0.5" width="44.5003" height="37.5" rx="18.75" transform="matrix(-1 0 0 1 44.5 0)" fill="#84BCDB"/>
<rect x="-0.5" y="0.5" width="44.5003" height="37.5" rx="18.75" transform="matrix(-1 0 0 1 44.5 0)" stroke="black"/>
<path d="M23.1133 30.5H25.1133C25.1133 30.5 24.8595 27.8955 21.6133 24C19.1133 21 15.1133 20 15.1133 20H35.5V18L15.1133 18.5C15.1133 18.5 19.5108 16.0195 21.6133 14C23.6147 12.0775 25.1133 8 25.1133 8H23.1133C23.1133 8 22.6133 10.5 20.6133 12.5C18.6133 14.5 9.99968 19.2878 9.99968 19.2878C9.99968 19.2878 18.3735 23.2602 20.1133 25C22.096 26.9827 23.1133 30.5 23.1133 30.5Z" fill="black"/>
</svg>
